<svg xmlns="http://www.w3.org/2000/svg" version="1.1" xmlns:xlink="http://www.w3.org/1999/xlink" width="32" height="32" x="0" y="0" viewBox="0 0 64 64" style="enable-background:new 0 0 512 512" xml:space="preserve" class=""><g><g fill="#393737"><path d="M55.567 49.822H8.433a4.771 4.771 0 0 1-4.766-4.766V18.944a4.771 4.771 0 0 1 4.766-4.766h47.135a4.771 4.771 0 0 1 4.766 4.766v26.112a4.773 4.773 0 0 1-4.767 4.766zM8.433 16.407a2.54 2.54 0 0 0-2.537 2.537v26.112a2.54 2.54 0 0 0 2.537 2.537h47.135a2.54 2.54 0 0 0 2.537-2.537V18.944a2.54 2.54 0 0 0-2.537-2.537z" fill="#000000" opacity="1" data-original="#393737" class=""></path><path d="M36.452 20.211a6.92 6.92 0 0 0-4.02 1.281 7.437 7.437 0 0 1 0 11.348 6.956 6.956 0 1 0 4.02-12.629zM29 27.167a7.436 7.436 0 0 1 2.629-5.674 6.956 6.956 0 1 0 0 11.35A7.445 7.445 0 0 1 29 27.167zM13.241 41.192a73.111 73.111 0 0 1-.058-2.674h-.029a35.43 35.43 0 0 1-.724 2.519l-.792 2.538H10.49l-.695-2.519a29.71 29.71 0 0 1-.589-2.538h-.02c-.039.878-.067 1.882-.116 2.693l-.116 2.471h-1.36l.415-6.507h1.96l.637 2.172c.203.753.406 1.564.55 2.326h.029c.183-.753.406-1.612.618-2.336l.695-2.163h1.921l.357 6.507h-1.438zM18.574 43.683l-.087-.473h-.029c-.309.376-.791.579-1.351.579-.956 0-1.525-.695-1.525-1.449 0-1.225 1.1-1.815 2.77-1.804v-.068c0-.251-.135-.608-.859-.608-.482 0-.994.164-1.303.358l-.27-.946c.328-.184.975-.415 1.834-.415 1.573 0 2.076.926 2.076 2.037v1.641c0 .454.019.889.067 1.149h-1.323zm-.174-2.23c-.772-.009-1.371.174-1.371.743 0 .376.251.56.579.56a.802.802 0 0 0 .763-.541c.019-.077.029-.164.029-.251zM20.981 42.399c.27.164.83.358 1.265.358.444 0 .627-.155.627-.396s-.144-.357-.695-.54c-.975-.328-1.351-.859-1.342-1.42 0-.878.753-1.544 1.921-1.544.55 0 1.042.125 1.332.27l-.26 1.014a2.313 2.313 0 0 0-1.023-.271c-.358 0-.56.145-.56.387 0 .222.183.338.763.54.898.308 1.274.762 1.284 1.457 0 .879-.695 1.525-2.046 1.525-.618 0-1.168-.135-1.526-.328zM26.823 37.611v1.351h1.053v1.082h-1.053v1.708c0 .57.135.83.579.83.184 0 .328-.019.435-.039l.009 1.11c-.193.077-.54.125-.956.125-.474 0-.869-.164-1.101-.406-.271-.279-.406-.733-.406-1.399v-1.931h-.627V38.96h.627v-1.023zM29.809 41.79c.048.608.646.898 1.332.898.502 0 .907-.068 1.304-.193l.192.994c-.482.193-1.072.29-1.708.29-1.603 0-2.519-.926-2.519-2.403 0-1.197.743-2.519 2.385-2.519 1.525 0 2.104 1.188 2.104 2.355 0 .251-.029.473-.048.579h-3.042zm1.728-1.003c0-.357-.155-.956-.83-.956-.618 0-.87.56-.908.956zM33.779 40.516c0-.695-.019-1.149-.04-1.555h1.266l.047.869h.04c.241-.685.821-.974 1.273-.974.136 0 .204 0 .309.019v1.381a2.045 2.045 0 0 0-.396-.039c-.54 0-.907.29-1.004.743a1.752 1.752 0 0 0-.028.328v2.394h-1.468v-3.166zM42.276 43.5c-.27.135-.879.279-1.67.279-2.251 0-3.409-1.4-3.409-3.253 0-2.22 1.585-3.456 3.552-3.456.764 0 1.343.155 1.604.29l-.3 1.169a3.177 3.177 0 0 0-1.236-.241c-1.168 0-2.075.705-2.075 2.153 0 1.304.772 2.124 2.085 2.124.445 0 .938-.097 1.226-.212zM45.783 43.683l-.087-.473h-.028c-.309.376-.792.579-1.353.579-.955 0-1.524-.695-1.524-1.449 0-1.225 1.1-1.815 2.769-1.804v-.068c0-.251-.134-.608-.858-.608a2.65 2.65 0 0 0-1.304.358l-.27-.946c.328-.184.975-.415 1.834-.415 1.573 0 2.075.926 2.075 2.037v1.641c0 .454.019.889.068 1.149h-1.322zm-.173-2.23c-.773-.009-1.372.174-1.372.743 0 .376.251.56.579.56a.803.803 0 0 0 .764-.541c.019-.077.028-.164.028-.251v-.511zM48.2 40.516c0-.695-.019-1.149-.04-1.555h1.266l.047.869h.04c.241-.685.821-.974 1.273-.974.136 0 .204 0 .309.019v1.381a2.045 2.045 0 0 0-.396-.039c-.54 0-.907.29-1.004.743a1.752 1.752 0 0 0-.028.328v2.394H48.2zM56.369 36.829v5.445c0 .531.019 1.09.038 1.409h-1.302l-.068-.695h-.019c-.3.531-.87.802-1.477.802-1.121 0-2.019-.956-2.019-2.423-.009-1.593.985-2.51 2.115-2.51.579 0 1.032.203 1.245.531h.019V36.83h1.468zm-1.468 4.131c0-.077-.009-.184-.019-.26-.087-.396-.406-.724-.86-.724-.666 0-1.013.599-1.013 1.342 0 .801.396 1.303 1.004 1.303a.86.86 0 0 0 .851-.705c.028-.106.038-.212.038-.338v-.618z" fill="#000000" opacity="1" data-original="#393737" class=""></path></g></g></svg>