<svg xmlns="http://www.w3.org/2000/svg" version="1.1" xmlns:xlink="http://www.w3.org/1999/xlink" width="24" height="24" x="0" y="0" viewBox="0 0 511.999 511.999" style="enable-background:new 0 0 512 512" xml:space="preserve"><g><path d="M222.01 319.988c-5.52 0-10 4.48-10 10s4.48 10 10 10 10-4.48 10-10-4.48-10-10-10z" fill="#FFFFFF" opacity="1" data-original="#000000"></path><path d="M182.011 0h-10c-22.055 0-39.999 17.943-39.999 39.999 0 10.338 4.028 20.182 11.024 27.543L82.264 241.49a10.014 10.014 0 0 0-1.995 5.709L1.478 472.725c-.037.104-.071.21-.104.316a29.916 29.916 0 0 0 7.425 30.16 29.92 29.92 0 0 0 30.16 7.425c.106-.033.212-.067.316-.104 354.947-124.014 404.108-141.183 405.183-141.559 7.361 6.995 17.205 11.024 27.543 11.024 22.055 0 39.999-17.938 39.999-39.989v-10.01C511.999 147.015 363.54 0 182.011 0zM124.69 180.69c24.963-4.623 47.321 14.655 47.321 39.302 0 22.055-17.943 39.999-39.999 39.999-11.667 0-22.628-5.063-30.209-13.795l22.887-65.506zm156.085 224.273c-5.678-7.064-8.767-15.763-8.767-24.977 0-22.055 17.943-39.999 39.999-39.999 21.754 0 40.073 17.595 39.989 40.089l-71.221 24.887zm90.812-31.733c-3.488-30.661-29.328-53.242-59.581-53.242-33.083 0-59.998 26.915-59.998 59.998 0 11.463 3.188 22.396 9.129 31.839L32.862 491.577c-3.577 1.067-7.275.13-9.924-2.517-2.647-2.648-3.583-6.349-2.517-9.925l74.154-212.253a59.924 59.924 0 0 0 37.438 13.107c33.083 0 59.998-26.915 59.998-59.998 0-33.109-26.973-60.061-60.091-59.996l28.543-81.699a39.947 39.947 0 0 0 11.549 1.7h10c137.846 0 249.991 112.145 249.991 249.991v10c0 3.959.581 7.839 1.699 11.548l-62.115 21.695zm120.414-33.232c-.001 11.022-8.973 19.989-20 19.989a20.007 20.007 0 0 1-16.334-8.478 19.805 19.805 0 0 1-3.665-11.522v-10c0-149.211-120.759-269.99-269.99-269.99h-10a19.802 19.802 0 0 1-11.522-3.665c-.007-.005-.015-.01-.021-.016a19.996 19.996 0 0 1-8.456-16.318c0-11.028 8.972-19.999 19.999-19.999h10c172.455 0 309.989 138.431 309.989 309.989v10.01z" fill="#FFFFFF" opacity="1" data-original="#000000"></path><path d="M340.29 191.714c-15.618-15.63-40.931-15.646-56.561-.006-15.63 15.618-15.646 40.932-.006 56.561 15.626 15.638 40.934 15.642 56.564.003 15.628-15.62 15.641-40.931.003-56.558zm-14.143 42.413-.006.006c-7.791 7.797-20.438 7.839-28.276-.006-7.797-7.79-7.838-20.437.006-28.276 7.791-7.797 20.438-7.839 28.276.006 7.818 7.811 7.817 20.46 0 28.27zM143.224 368.776c-11.723-11.725-30.695-11.728-42.419-.001-11.725 11.723-11.728 30.695-.001 42.419 11.723 11.725 30.695 11.728 42.419.001l.001-.001c11.725-11.722 11.725-30.695 0-42.418zm-14.142 28.277a9.988 9.988 0 0 1-14.138 0 9.99 9.99 0 0 1 .001-14.138 9.988 9.988 0 0 1 14.137.001 9.989 9.989 0 0 1 0 14.137zM382.004 279.99h-19.999c-5.522 0-10 4.478-10 10s4.477 10 10 10h19.999c5.522 0 10-4.478 10-10s-4.478-10-10-10zM270.952 125.524c-2.47-4.94-8.48-6.944-13.415-4.473l-39.999 19.999c-4.94 2.47-6.942 8.477-4.473 13.416 2.474 4.949 8.488 6.939 13.416 4.473l39.998-19.999c4.94-2.471 6.942-8.478 4.473-13.416zM250.953 285.518l-19.999-39.999c-2.47-4.941-8.48-6.944-13.415-4.473-4.94 2.47-6.942 8.477-4.473 13.415l19.999 39.999c2.474 4.949 8.487 6.939 13.415 4.473 4.94-2.47 6.942-8.477 4.473-13.415zM162.012 299.989h-19.999c-5.522 0-10 4.478-10 10s4.478 10 10 10h19.999c5.522 0 10-4.478 10-10s-4.478-10-10-10z" fill="#FFFFFF" opacity="1" data-original="#000000"></path></g></svg>